# This file uses centimeters as units for non-parametric coordinates.

mtllib Pillow.mtl
g default
v 0.766726 0.043415 -1.038148
v 0.652216 0.082581 -1.038148
v 0.473863 0.113662 -1.038148
v 0.249124 0.133618 -1.038148
v -0.000000 0.140494 -1.038148
v -0.249124 0.133618 -1.038148
v -0.473862 0.113662 -1.038148
v -0.652216 0.082581 -1.038148
v -0.766726 0.043415 -1.038148
v -0.806183 0.000000 -1.038148
v -0.766726 -0.043415 -1.038148
v -0.652216 -0.082580 -1.038148
v -0.473862 -0.113662 -1.038148
v -0.249124 -0.133618 -1.038148
v -0.000000 -0.140494 -1.038148
v 0.249124 -0.133618 -1.038148
v 0.473862 -0.113662 -1.038148
v 0.652215 -0.082580 -1.038148
v 0.766725 -0.043415 -1.038148
v 0.806183 0.000000 -1.038148
v 0.888417 0.087766 -0.622889
v 0.755732 0.166941 -0.622889
v 0.549072 0.229775 -0.622889
v 0.288664 0.270117 -0.622889
v -0.000000 0.284018 -0.622889
v -0.288664 0.270117 -0.622889
v -0.549072 0.229775 -0.622889
v -0.755732 0.166941 -0.622889
v -0.888416 0.087766 -0.622889
v -0.934136 0.000000 -0.622889
v -0.888416 -0.087766 -0.622889
v -0.755732 -0.166941 -0.622889
v -0.549071 -0.229775 -0.622889
v -0.288664 -0.270117 -0.622889
v -0.000000 -0.284018 -0.622889
v 0.288664 -0.270117 -0.622889
v 0.549071 -0.229775 -0.622889
v 0.755732 -0.166941 -0.622889
v 0.888416 -0.087766 -0.622889
v 0.934136 0.000000 -0.622889
v 0.951057 0.101318 -0.207630
v 0.809018 0.192719 -0.207630
v 0.587786 0.265255 -0.207630
v 0.309017 0.311825 -0.207630
v 0.000000 0.327873 -0.207630
v -0.309017 0.311825 -0.207630
v -0.587785 0.265255 -0.207630
v -0.809017 0.192719 -0.207630
v -0.951057 0.101318 -0.207630
v -1.000000 -0.000000 -0.207630
v -0.951057 -0.101318 -0.207630
v -0.809017 -0.192719 -0.207630
v -0.587785 -0.265254 -0.207630
v -0.309017 -0.311825 -0.207630
v -0.000000 -0.327873 -0.207630
v 0.309017 -0.311825 -0.207630
v 0.587785 -0.265254 -0.207630
v 0.809017 -0.192719 -0.207630
v 0.951057 -0.101318 -0.207630
v 1.000000 -0.000000 -0.207630
v 0.951057 0.101318 0.207630
v 0.809018 0.192719 0.207630
v 0.587786 0.265255 0.207630
v 0.309017 0.311825 0.207630
v 0.000000 0.327873 0.207630
v -0.309017 0.311825 0.207630
v -0.587785 0.265255 0.207630
v -0.809017 0.192719 0.207630
v -0.951057 0.101318 0.207630
v -1.000000 0.000000 0.207630
v -0.951057 -0.101318 0.207630
v -0.809017 -0.192719 0.207630
v -0.587785 -0.265254 0.207630
v -0.309017 -0.311825 0.207630
v -0.000000 -0.327873 0.207630
v 0.309017 -0.311825 0.207630
v 0.587785 -0.265254 0.207630
v 0.809017 -0.192719 0.207630
v 0.951057 -0.101318 0.207630
v 1.000000 0.000000 0.207630
v 0.888417 0.087766 0.622889
v 0.755732 0.166941 0.622889
v 0.549072 0.229775 0.622889
v 0.288664 0.270117 0.622889
v -0.000000 0.284018 0.622889
v -0.288664 0.270117 0.622889
v -0.549072 0.229775 0.622889
v -0.755732 0.166941 0.622889
v -0.888416 0.087766 0.622889
v -0.934136 0.000000 0.622889
v -0.888416 -0.087766 0.622889
v -0.755732 -0.166941 0.622889
v -0.549071 -0.229775 0.622889
v -0.288664 -0.270117 0.622889
v -0.000000 -0.284018 0.622889
v 0.288664 -0.270117 0.622889
v 0.549071 -0.229775 0.622889
v 0.755732 -0.166941 0.622889
v 0.888416 -0.087766 0.622889
v 0.934136 0.000000 0.622889
v 0.766726 0.043415 1.038148
v 0.652216 0.082581 1.038148
v 0.473863 0.113662 1.038148
v 0.249124 0.133618 1.038148
v -0.000000 0.140494 1.038148
v -0.249124 0.133618 1.038148
v -0.473862 0.113662 1.038148
v -0.652216 0.082581 1.038148
v -0.766726 0.043415 1.038148
v -0.806183 0.000000 1.038148
v -0.766726 -0.043415 1.038148
v -0.652216 -0.082580 1.038148
v -0.473862 -0.113662 1.038148
v -0.249124 -0.133618 1.038148
v -0.000000 -0.140494 1.038148
v 0.249124 -0.133618 1.038148
v 0.473862 -0.113662 1.038148
v 0.652215 -0.082580 1.038148
v 0.766725 -0.043415 1.038148
v 0.806183 0.000000 1.038148
v -0.000000 0.000000 -1.038148
v -0.000000 0.000000 1.038148
vt 0.648603 0.107966
vt 0.626409 0.064408
vt 0.591842 0.029841
vt 0.548284 0.007647
vt 0.500000 -0.000000
vt 0.451716 0.007647
vt 0.408159 0.029841
vt 0.373591 0.064409
vt 0.351397 0.107966
vt 0.343750 0.156250
vt 0.351397 0.204534
vt 0.373591 0.248091
vt 0.408159 0.282659
vt 0.451716 0.304853
vt 0.500000 0.312500
vt 0.548284 0.304853
vt 0.591841 0.282659
vt 0.626409 0.248091
vt 0.648603 0.204534
vt 0.656250 0.156250
vt 0.375000 0.312500
vt 0.387500 0.312500
vt 0.400000 0.312500
vt 0.412500 0.312500
vt 0.425000 0.312500
vt 0.437500 0.312500
vt 0.450000 0.312500
vt 0.462500 0.312500
vt 0.475000 0.312500
vt 0.487500 0.312500
vt 0.500000 0.312500
vt 0.512500 0.312500
vt 0.525000 0.312500
vt 0.537500 0.312500
vt 0.550000 0.312500
vt 0.562500 0.312500
vt 0.575000 0.312500
vt 0.587500 0.312500
vt 0.600000 0.312500
vt 0.612500 0.312500
vt 0.625000 0.312500
vt 0.375000 0.387688
vt 0.387500 0.387688
vt 0.400000 0.387688
vt 0.412500 0.387688
vt 0.425000 0.387688
vt 0.437500 0.387688
vt 0.450000 0.387688
vt 0.462500 0.387688
vt 0.475000 0.387688
vt 0.487500 0.387688
vt 0.500000 0.387688
vt 0.512500 0.387688
vt 0.525000 0.387688
vt 0.537500 0.387688
vt 0.550000 0.387688
vt 0.562500 0.387688
vt 0.575000 0.387688
vt 0.587500 0.387688
vt 0.600000 0.387688
vt 0.612500 0.387688
vt 0.625000 0.387688
vt 0.375000 0.462876
vt 0.387500 0.462876
vt 0.400000 0.462876
vt 0.412500 0.462876
vt 0.425000 0.462876
vt 0.437500 0.462876
vt 0.450000 0.462876
vt 0.462500 0.462876
vt 0.475000 0.462876
vt 0.487500 0.462876
vt 0.500000 0.462876
vt 0.512500 0.462876
vt 0.525000 0.462876
vt 0.537500 0.462876
vt 0.550000 0.462876
vt 0.562500 0.462876
vt 0.575000 0.462876
vt 0.587500 0.462876
vt 0.600000 0.462876
vt 0.612500 0.462876
vt 0.625000 0.462876
vt 0.375000 0.538064
vt 0.387500 0.538064
vt 0.400000 0.538064
vt 0.412500 0.538064
vt 0.425000 0.538064
vt 0.437500 0.538064
vt 0.450000 0.538064
vt 0.462500 0.538064
vt 0.475000 0.538064
vt 0.487500 0.538064
vt 0.500000 0.538064
vt 0.512500 0.538064
vt 0.525000 0.538064
vt 0.537500 0.538064
vt 0.550000 0.538064
vt 0.562500 0.538064
vt 0.575000 0.538064
vt 0.587500 0.538064
vt 0.600000 0.538064
vt 0.612500 0.538064
vt 0.625000 0.538064
vt 0.375000 0.613252
vt 0.387500 0.613252
vt 0.400000 0.613252
vt 0.412500 0.613252
vt 0.425000 0.613252
vt 0.437500 0.613252
vt 0.450000 0.613252
vt 0.462500 0.613252
vt 0.475000 0.613252
vt 0.487500 0.613252
vt 0.500000 0.613252
vt 0.512500 0.613252
vt 0.525000 0.613252
vt 0.537500 0.613252
vt 0.550000 0.613252
vt 0.562500 0.613252
vt 0.575000 0.613252
vt 0.587500 0.613252
vt 0.600000 0.613252
vt 0.612500 0.613252
vt 0.625000 0.613252
vt 0.375000 0.688440
vt 0.387500 0.688440
vt 0.400000 0.688440
vt 0.412500 0.688440
vt 0.425000 0.688440
vt 0.437500 0.688440
vt 0.450000 0.688440
vt 0.462500 0.688440
vt 0.475000 0.688440
vt 0.487500 0.688440
vt 0.500000 0.688440
vt 0.512500 0.688440
vt 0.525000 0.688440
vt 0.537500 0.688440
vt 0.550000 0.688440
vt 0.562500 0.688440
vt 0.575000 0.688440
vt 0.587500 0.688440
vt 0.600000 0.688440
vt 0.612500 0.688440
vt 0.625000 0.688440
vt 0.648603 0.795466
vt 0.626409 0.751908
vt 0.591842 0.717341
vt 0.548284 0.695147
vt 0.500000 0.687500
vt 0.451716 0.695147
vt 0.408159 0.717341
vt 0.373591 0.751909
vt 0.351397 0.795466
vt 0.343750 0.843750
vt 0.351397 0.892034
vt 0.373591 0.935591
vt 0.408159 0.970159
vt 0.451716 0.992353
vt 0.500000 1.000000
vt 0.548284 0.992353
vt 0.591841 0.970159
vt 0.626409 0.935591
vt 0.648603 0.892034
vt 0.656250 0.843750
vt 0.500000 0.150000
vt 0.500000 0.837500
vn 0.593759 0.759241 -0.266466
vn 0.315313 0.911452 -0.264258
vn 0.351272 0.918171 -0.183220
vn 0.636120 0.747502 -0.191289
vn 0.170673 0.941605 -0.290259
vn 0.195217 0.961679 -0.192521
vn 0.076457 0.946760 -0.312729
vn 0.088847 0.975416 -0.201668
vn 0.000000 0.947060 -0.321058
vn 0.000000 0.978729 -0.205158
vn -0.076457 0.946760 -0.312729
vn -0.088847 0.975416 -0.201668
vn -0.170673 0.941605 -0.290258
vn -0.195217 0.961679 -0.192520
vn -0.315313 0.911452 -0.264258
vn -0.351272 0.918171 -0.183220
vn -0.593758 0.759242 -0.266465
vn -0.636119 0.747503 -0.191289
vn -0.948133 -0.000000 -0.317874
vn -0.974256 -0.000000 -0.225447
vn -0.593758 -0.759242 -0.266465
vn -0.636119 -0.747504 -0.191289
vn -0.315313 -0.911452 -0.264258
vn -0.351272 -0.918171 -0.183220
vn -0.170673 -0.941605 -0.290258
vn -0.195217 -0.961679 -0.192520
vn -0.076457 -0.946760 -0.312729
vn -0.088847 -0.975416 -0.201668
vn -0.000000 -0.947060 -0.321058
vn -0.000000 -0.978729 -0.205158
vn 0.076457 -0.946760 -0.312729
vn 0.088847 -0.975416 -0.201668
vn 0.170673 -0.941605 -0.290259
vn 0.195217 -0.961679 -0.192520
vn 0.315313 -0.911452 -0.264258
vn 0.351272 -0.918171 -0.183220
vn 0.593758 -0.759242 -0.266465
vn 0.636119 -0.747503 -0.191289
vn 0.948133 -0.000003 -0.317873
vn 0.974256 -0.000003 -0.225447
vn 0.402169 0.914044 -0.052757
vn 0.699885 0.711459 -0.063154
vn 0.225978 0.972835 -0.050268
vn 0.103208 0.993392 -0.050196
vn 0.000000 0.998731 -0.050353
vn -0.103209 0.993392 -0.050196
vn -0.225978 0.972834 -0.050268
vn -0.402169 0.914044 -0.052757
vn -0.699883 0.711460 -0.063154
vn -0.996974 0.000000 -0.077731
vn -0.699883 -0.711460 -0.063154
vn -0.402169 -0.914044 -0.052757
vn -0.225978 -0.972835 -0.050268
vn -0.103209 -0.993392 -0.050196
vn 0.000000 -0.998731 -0.050353
vn 0.103209 -0.993392 -0.050196
vn 0.225978 -0.972835 -0.050268
vn 0.402169 -0.914044 -0.052757
vn 0.699883 -0.711460 -0.063154
vn 0.996974 -0.000003 -0.077731
vn 0.402169 0.914044 0.052757
vn 0.699884 0.711459 0.063154
vn 0.225978 0.972835 0.050268
vn 0.103208 0.993392 0.050196
vn 0.000000 0.998731 0.050353
vn -0.103209 0.993392 0.050196
vn -0.225978 0.972834 0.050268
vn -0.402169 0.914044 0.052757
vn -0.699883 0.711460 0.063154
vn -0.996974 0.000000 0.077731
vn -0.699883 -0.711460 0.063154
vn -0.402169 -0.914044 0.052757
vn -0.225978 -0.972835 0.050268
vn -0.103209 -0.993392 0.050196
vn 0.000000 -0.998731 0.050353
vn 0.103209 -0.993392 0.050196
vn 0.225978 -0.972835 0.050268
vn 0.402169 -0.914044 0.052757
vn 0.699883 -0.711460 0.063154
vn 0.996974 -0.000003 0.077731
vn 0.351272 0.918171 0.183220
vn 0.636120 0.747502 0.191289
vn 0.195217 0.961679 0.192521
vn 0.088847 0.975416 0.201668
vn 0.000000 0.978729 0.205158
vn -0.088847 0.975416 0.201668
vn -0.195217 0.961679 0.192520
vn -0.351272 0.918171 0.183220
vn -0.636119 0.747503 0.191289
vn -0.974256 -0.000000 0.225447
vn -0.636119 -0.747504 0.191289
vn -0.351272 -0.918171 0.183220
vn -0.195217 -0.961679 0.192520
vn -0.088847 -0.975416 0.201668
vn 0.000000 -0.978729 0.205158
vn 0.088847 -0.975416 0.201668
vn 0.195217 -0.961679 0.192520
vn 0.351272 -0.918171 0.183220
vn 0.636119 -0.747503 0.191289
vn 0.974256 -0.000003 0.225447
vn 0.315313 0.911452 0.264258
vn 0.593759 0.759241 0.266466
vn 0.170673 0.941605 0.290259
vn 0.076457 0.946760 0.312729
vn 0.000000 0.947060 0.321058
vn -0.076457 0.946760 0.312729
vn -0.170673 0.941605 0.290258
vn -0.315313 0.911452 0.264258
vn -0.593758 0.759242 0.266465
vn -0.948133 0.000000 0.317874
vn -0.593758 -0.759242 0.266465
vn -0.315313 -0.911452 0.264258
vn -0.170673 -0.941605 0.290258
vn -0.076457 -0.946760 0.312729
vn 0.000000 -0.947060 0.321058
vn 0.076457 -0.946760 0.312729
vn 0.170673 -0.941605 0.290258
vn 0.315313 -0.911452 0.264258
vn 0.593758 -0.759242 0.266465
vn 0.948133 -0.000004 0.317873
vn 0.000000 -0.000001 -1.000000
vn 0.000000 -0.000000 -1.000000
vn 0.000000 -0.000000 -1.000000
vn 0.000000 -0.000001 -1.000000
vn 0.000000 -0.000000 -1.000000
vn 0.000000 -0.000000 -1.000000
vn 0.000000 -0.000000 -1.000000
vn 0.000000 -0.000000 -1.000000
vn 0.000000 -0.000000 -1.000000
vn 0.000000 -0.000000 -1.000000
vn 0.000000 -0.000000 -1.000000
vn 0.000000 -0.000000 -1.000000
vn 0.000000 -0.000001 -1.000000
vn 0.000000 -0.000001 -1.000000
vn 0.000000 0.000000 -1.000000
vn 0.000000 -0.000000 -1.000000
vn 0.000000 -0.000000 -1.000000
vn 0.000000 -0.000000 -1.000000
vn 0.000000 -0.000000 -1.000000
vn 0.000000 -0.000000 -1.000000
vn 0.000000 -0.000000 -1.000000
vn 0.000000 0.000000 1.000000
vn 0.000000 0.000000 1.000000
vn 0.000000 0.000000 1.000000
vn 0.000000 0.000000 1.000000
vn 0.000000 0.000000 1.000000
vn 0.000000 0.000000 1.000000
vn 0.000000 0.000000 1.000000
vn 0.000000 0.000001 1.000000
vn 0.000000 0.000001 1.000000
vn 0.000000 0.000000 1.000000
vn 0.000000 0.000000 1.000000
vn 0.000000 0.000000 1.000000
vn 0.000000 -0.000001 1.000000
vn 0.000000 -0.000002 1.000000
vn 0.000000 0.000000 1.000000
vn 0.000000 0.000000 1.000000
vn 0.000000 -0.000000 1.000000
vn 0.000000 0.000001 1.000000
vn 0.000000 0.000001 1.000000
vn 0.000000 0.000000 1.000000
vn 0.000000 0.000000 1.000000
s 1
g pCylinder1
usemtl initialShadingGroup
f 1/21/1 2/22/2 22/43/3 21/42/4
f 2/22/2 3/23/5 23/44/6 22/43/3
f 3/23/5 4/24/7 24/45/8 23/44/6
f 4/24/7 5/25/9 25/46/10 24/45/8
f 5/25/9 6/26/11 26/47/12 25/46/10
f 6/26/11 7/27/13 27/48/14 26/47/12
f 7/27/13 8/28/15 28/49/16 27/48/14
f 8/28/15 9/29/17 29/50/18 28/49/16
f 9/29/17 10/30/19 30/51/20 29/50/18
f 10/30/19 11/31/21 31/52/22 30/51/20
f 11/31/21 12/32/23 32/53/24 31/52/22
f 12/32/23 13/33/25 33/54/26 32/53/24
f 13/33/25 14/34/27 34/55/28 33/54/26
f 14/34/27 15/35/29 35/56/30 34/55/28
f 15/35/29 16/36/31 36/57/32 35/56/30
f 16/36/31 17/37/33 37/58/34 36/57/32
f 17/37/33 18/38/35 38/59/36 37/58/34
f 18/38/35 19/39/37 39/60/38 38/59/36
f 19/39/37 20/40/39 40/61/40 39/60/38
f 20/40/39 1/41/1 21/62/4 40/61/40
f 21/42/4 22/43/3 42/64/41 41/63/42
f 22/43/3 23/44/6 43/65/43 42/64/41
f 23/44/6 24/45/8 44/66/44 43/65/43
f 24/45/8 25/46/10 45/67/45 44/66/44
f 25/46/10 26/47/12 46/68/46 45/67/45
f 26/47/12 27/48/14 47/69/47 46/68/46
f 27/48/14 28/49/16 48/70/48 47/69/47
f 28/49/16 29/50/18 49/71/49 48/70/48
f 29/50/18 30/51/20 50/72/50 49/71/49
f 30/51/20 31/52/22 51/73/51 50/72/50
f 31/52/22 32/53/24 52/74/52 51/73/51
f 32/53/24 33/54/26 53/75/53 52/74/52
f 33/54/26 34/55/28 54/76/54 53/75/53
f 34/55/28 35/56/30 55/77/55 54/76/54
f 35/56/30 36/57/32 56/78/56 55/77/55
f 36/57/32 37/58/34 57/79/57 56/78/56
f 37/58/34 38/59/36 58/80/58 57/79/57
f 38/59/36 39/60/38 59/81/59 58/80/58
f 39/60/38 40/61/40 60/82/60 59/81/59
f 40/61/40 21/62/4 41/83/42 60/82/60
f 41/63/42 42/64/41 62/85/61 61/84/62
f 42/64/41 43/65/43 63/86/63 62/85/61
f 43/65/43 44/66/44 64/87/64 63/86/63
f 44/66/44 45/67/45 65/88/65 64/87/64
f 45/67/45 46/68/46 66/89/66 65/88/65
f 46/68/46 47/69/47 67/90/67 66/89/66
f 47/69/47 48/70/48 68/91/68 67/90/67
f 48/70/48 49/71/49 69/92/69 68/91/68
f 49/71/49 50/72/50 70/93/70 69/92/69
f 50/72/50 51/73/51 71/94/71 70/93/70
f 51/73/51 52/74/52 72/95/72 71/94/71
f 52/74/52 53/75/53 73/96/73 72/95/72
f 53/75/53 54/76/54 74/97/74 73/96/73
f 54/76/54 55/77/55 75/98/75 74/97/74
f 55/77/55 56/78/56 76/99/76 75/98/75
f 56/78/56 57/79/57 77/100/77 76/99/76
f 57/79/57 58/80/58 78/101/78 77/100/77
f 58/80/58 59/81/59 79/102/79 78/101/78
f 59/81/59 60/82/60 80/103/80 79/102/79
f 60/82/60 41/83/42 61/104/62 80/103/80
f 61/84/62 62/85/61 82/106/81 81/105/82
f 62/85/61 63/86/63 83/107/83 82/106/81
f 63/86/63 64/87/64 84/108/84 83/107/83
f 64/87/64 65/88/65 85/109/85 84/108/84
f 65/88/65 66/89/66 86/110/86 85/109/85
f 66/89/66 67/90/67 87/111/87 86/110/86
f 67/90/67 68/91/68 88/112/88 87/111/87
f 68/91/68 69/92/69 89/113/89 88/112/88
f 69/92/69 70/93/70 90/114/90 89/113/89
f 70/93/70 71/94/71 91/115/91 90/114/90
f 71/94/71 72/95/72 92/116/92 91/115/91
f 72/95/72 73/96/73 93/117/93 92/116/92
f 73/96/73 74/97/74 94/118/94 93/117/93
f 74/97/74 75/98/75 95/119/95 94/118/94
f 75/98/75 76/99/76 96/120/96 95/119/95
f 76/99/76 77/100/77 97/121/97 96/120/96
f 77/100/77 78/101/78 98/122/98 97/121/97
f 78/101/78 79/102/79 99/123/99 98/122/98
f 79/102/79 80/103/80 100/124/100 99/123/99
f 80/103/80 61/104/62 81/125/82 100/124/100
f 81/105/82 82/106/81 102/127/101 101/126/102
f 82/106/81 83/107/83 103/128/103 102/127/101
f 83/107/83 84/108/84 104/129/104 103/128/103
f 84/108/84 85/109/85 105/130/105 104/129/104
f 85/109/85 86/110/86 106/131/106 105/130/105
f 86/110/86 87/111/87 107/132/107 106/131/106
f 87/111/87 88/112/88 108/133/108 107/132/107
f 88/112/88 89/113/89 109/134/109 108/133/108
f 89/113/89 90/114/90 110/135/110 109/134/109
f 90/114/90 91/115/91 111/136/111 110/135/110
f 91/115/91 92/116/92 112/137/112 111/136/111
f 92/116/92 93/117/93 113/138/113 112/137/112
f 93/117/93 94/118/94 114/139/114 113/138/113
f 94/118/94 95/119/95 115/140/115 114/139/114
f 95/119/95 96/120/96 116/141/116 115/140/115
f 96/120/96 97/121/97 117/142/117 116/141/116
f 97/121/97 98/122/98 118/143/118 117/142/117
f 98/122/98 99/123/99 119/144/119 118/143/118
f 99/123/99 100/124/100 120/145/120 119/144/119
f 100/124/100 81/125/82 101/146/102 120/145/120
s 2
f 2/2/121 1/1/122 121/167/123
f 3/3/124 2/2/121 121/167/123
f 4/4/125 3/3/124 121/167/123
f 5/5/126 4/4/125 121/167/123
f 6/6/127 5/5/126 121/167/123
f 7/7/128 6/6/127 121/167/123
f 8/8/129 7/7/128 121/167/123
f 9/9/130 8/8/129 121/167/123
f 10/10/131 9/9/130 121/167/123
f 11/11/132 10/10/131 121/167/123
f 12/12/133 11/11/132 121/167/123
f 13/13/134 12/12/133 121/167/123
f 14/14/135 13/13/134 121/167/123
f 15/15/136 14/14/135 121/167/123
f 16/16/137 15/15/136 121/167/123
f 17/17/138 16/16/137 121/167/123
f 18/18/139 17/17/138 121/167/123
f 19/19/140 18/18/139 121/167/123
f 20/20/141 19/19/140 121/167/123
f 1/1/122 20/20/141 121/167/123
s 3
f 101/165/142 102/164/143 122/168/144
f 102/164/143 103/163/145 122/168/144
f 103/163/145 104/162/146 122/168/144
f 104/162/146 105/161/147 122/168/144
f 105/161/147 106/160/148 122/168/144
f 106/160/148 107/159/149 122/168/144
f 107/159/149 108/158/150 122/168/144
f 108/158/150 109/157/151 122/168/144
f 109/157/151 110/156/152 122/168/144
f 110/156/152 111/155/153 122/168/144
f 111/155/153 112/154/154 122/168/144
f 112/154/154 113/153/155 122/168/144
f 113/153/155 114/152/156 122/168/144
f 114/152/156 115/151/157 122/168/144
f 115/151/157 116/150/158 122/168/144
f 116/150/158 117/149/159 122/168/144
f 117/149/159 118/148/160 122/168/144
f 118/148/160 119/147/161 122/168/144
f 119/147/161 120/166/162 122/168/144
f 120/166/162 101/165/142 122/168/144
