# This file uses centimeters as units for non-parametric coordinates.

mtllib Semicircle3.mtl
g default
v 0.951057 -1.000000 -0.309017
v 0.809018 -1.000000 -0.587786
v 0.587786 -1.000000 -0.809017
v 0.309017 -1.000000 -0.951057
v 0.000000 -1.000000 -1.000000
v -0.309017 -1.000000 -0.951057
v -0.587785 -1.000000 -0.809017
v -0.809017 -1.000000 -0.587785
v -0.951057 -1.000000 -0.309017
v -1.000000 -1.000000 0.000000
v 1.000000 -1.000000 0.000000
v 0.000000 -1.000000 0.000000
vt 0.043127 0.057995
vt 0.042303 0.123125
vt 0.041020 0.224568
vt 0.039404 0.352393
vt 0.037612 0.494088
vt 0.035820 0.635783
vt 0.034204 0.763608
vt 0.032921 0.865051
vt 0.032097 0.930181
vt 0.031814 0.952623
vt 0.043410 0.035553
vt 0.939795 0.498469
vn 0.000000 -1.000000 0.000000
vn 0.000000 -1.000000 0.000000
vn 0.000000 -1.000000 0.000000
vn 0.000000 -1.000000 0.000000
vn 0.000000 -1.000000 0.000000
vn 0.000000 -1.000000 0.000000
vn 0.000000 -1.000000 0.000000
vn 0.000000 -1.000000 0.000000
vn 0.000000 -1.000000 0.000000
vn 0.000000 -1.000000 0.000000
vn 0.000000 -1.000000 0.000000
vn 0.000000 -1.000000 0.000000
s 1
g pCylinder1
usemtl lambert2SG
f 2/2/1 1/1/2 12/12/3
f 3/3/4 2/2/1 12/12/3
f 4/4/5 3/3/4 12/12/3
f 5/5/6 4/4/5 12/12/3
f 6/6/7 5/5/6 12/12/3
f 7/7/8 6/6/7 12/12/3
f 8/8/9 7/7/8 12/12/3
f 9/9/10 8/8/9 12/12/3
f 10/10/11 9/9/10 12/12/3
f 1/1/2 11/11/12 12/12/3
