# This file uses centimeters as units for non-parametric coordinates.

mtllib Semicircle2.mtl
g default
v 0.951057 -1.000000 -0.309017
v 0.809018 -1.000000 -0.587786
v 0.587786 -1.000000 -0.809017
v 0.309017 -1.000000 -0.951057
v 0.000000 -1.000000 -1.000000
v -0.309017 -1.000000 -0.951057
v -0.587785 -1.000000 -0.809017
v -0.809017 -1.000000 -0.587785
v -0.951057 -1.000000 -0.309017
v -1.000000 -1.000000 0.000000
v 1.000000 -1.000000 0.000000
v 0.000000 -1.000000 0.000000
vt 0.648603 0.463163
vt 0.626409 0.463163
vt 0.591842 0.463163
vt 0.548284 0.463163
vt 0.500000 0.463163
vt 0.451716 0.463163
vt 0.408159 0.463163
vt 0.373591 0.463163
vt 0.351397 0.463163
vt 0.343750 0.463163
vt 0.656250 0.463163
vt 0.500000 0.653656
vn 0.000000 -1.000000 0.000000
vn 0.000000 -1.000000 0.000000
vn 0.000000 -1.000000 0.000000
vn 0.000000 -1.000000 0.000000
vn 0.000000 -1.000000 0.000000
vn 0.000000 -1.000000 0.000000
vn 0.000000 -1.000000 0.000000
vn 0.000000 -1.000000 0.000000
vn 0.000000 -1.000000 0.000000
vn 0.000000 -1.000000 0.000000
vn 0.000000 -1.000000 0.000000
vn 0.000000 -1.000000 0.000000
s 1
g pCylinder1
usemtl initialShadingGroup
f 2/2/1 1/1/2 12/12/3
f 3/3/4 2/2/1 12/12/3
f 4/4/5 3/3/4 12/12/3
f 5/5/6 4/4/5 12/12/3
f 6/6/7 5/5/6 12/12/3
f 7/7/8 6/6/7 12/12/3
f 8/8/9 7/7/8 12/12/3
f 9/9/10 8/8/9 12/12/3
f 10/10/11 9/9/10 12/12/3
f 1/1/2 11/11/12 12/12/3
