# This file uses centimeters as units for non-parametric coordinates.

mtllib sidewalkCorner2.mtl
g default
v 0.000000 0.175000 1.000000
v -0.309017 0.000000 0.951057
v -0.587785 0.000000 0.809017
v -0.809017 0.000000 0.587785
v -0.951057 0.000000 0.309017
v -1.000000 0.175000 -0.000000
v 0.000000 0.175000 2.000001
v -0.618034 0.000000 1.902114
v -1.175571 0.000000 1.618035
v -1.618034 0.000000 1.175571
v -1.902114 0.000000 0.618034
v -2.000000 0.175000 -0.000000
v 0.000000 -0.175000 2.000001
v -0.618034 -0.175000 1.902114
v -1.175571 -0.175000 1.618035
v -1.618034 -0.175000 1.175571
v -1.902114 -0.175000 0.618034
v -2.000000 -0.175000 0.000000
v 0.000000 -0.175000 1.000000
v -0.309017 -0.175000 0.951057
v -0.587785 -0.175000 0.809017
v -0.809017 -0.175000 0.587785
v -0.951057 -0.175000 0.309017
v -1.000000 -0.175000 0.000000
v -0.300428 0.175000 0.952417
v -0.300428 -0.175000 0.952417
v -0.600857 -0.175000 1.904835
v -0.600857 0.175000 1.904835
v -0.315808 0.175000 0.947597
v -0.315808 -0.175000 0.947597
v -0.631616 -0.175000 1.895193
v -0.631616 0.175000 1.895193
v -0.582750 0.175000 0.811583
v -1.165500 0.175000 1.623166
v -1.165500 -0.175000 1.623166
v -0.582750 -0.175000 0.811583
v -0.591545 0.175000 0.805258
v -0.591545 -0.175000 0.805258
v -1.183089 -0.175000 1.610516
v -1.183089 0.175000 1.610516
v -0.804286 0.175000 0.592517
v -1.608572 0.175000 1.185033
v -1.608572 -0.175000 1.185033
v -0.804286 -0.175000 0.592517
v -0.812402 0.175000 0.581143
v -0.812402 -0.175000 0.581143
v -1.624803 -0.175000 1.162287
v -1.624803 0.175000 1.162287
v -0.948964 0.175000 0.313125
v -1.897927 0.175000 0.626250
v -1.897927 -0.175000 0.626250
v -0.948964 -0.175000 0.313125
v -0.951877 0.175000 0.303835
v -0.951877 -0.175000 0.303835
v -1.903755 -0.175000 0.607671
v -1.903755 0.175000 0.607671
v -0.025000 0.030000 1.000000
v 0.025000 0.030000 1.000000
v -0.025000 -0.170000 1.000000
v 0.025000 -0.170000 1.000000
v -0.025000 -0.170000 2.000000
v 0.025000 -0.170000 2.000000
v -0.025000 0.030000 2.000000
v 0.025000 0.030000 2.000000
v -2.000000 0.030000 0.023334
v -2.000000 0.030000 -0.026666
v -2.000000 -0.170000 0.023334
v -2.000000 -0.170000 -0.026666
v -1.000000 -0.170000 0.023334
v -1.000000 -0.170000 -0.026666
v -1.000000 0.030000 0.023334
v -1.000000 0.030000 -0.026666
vt 0.500000 0.078125
vt 0.475858 0.081949
vt 0.454079 0.093046
vt 0.436796 0.110329
vt 0.425699 0.132108
vt 0.421875 0.156250
vt 0.462500 0.156250
vt 0.451716 0.007647
vt 0.408159 0.029841
vt 0.373591 0.064409
vt 0.351397 0.107966
vt 0.415625 0.234375
vt 0.437500 0.312500
vt 0.450000 0.312500
vt 0.462500 0.312500
vt 0.475000 0.312500
vt 0.462500 0.844220
vt 0.437500 0.688440
vt 0.450000 0.688440
vt 0.462500 0.688440
vt 0.475000 0.688440
vt 0.415625 0.766095
vt 0.351397 0.892034
vt 0.373591 0.935591
vt 0.408159 0.970159
vt 0.451716 0.992353
vt 0.421875 0.843750
vt 0.425699 0.867892
vt 0.436796 0.889671
vt 0.454079 0.906954
vt 0.475858 0.918051
vt 0.500000 0.921875
vt 0.476529 0.081842
vt 0.476529 0.918158
vt 0.452016 0.988235
vt 0.438195 0.692770
vt 0.438195 0.308157
vt 0.452016 0.011778
vt 0.475327 0.082219
vt 0.475327 0.917781
vt 0.450655 0.991812
vt 0.437804 0.688440
vt 0.437804 0.312500
vt 0.450655 0.008188
vt 0.454473 0.092845
vt 0.449774 0.312500
vt 0.408945 0.029440
vt 0.408945 0.970560
vt 0.449774 0.688440
vt 0.454473 0.907155
vt 0.453786 0.093339
vt 0.453786 0.906661
vt 0.407571 0.969572
vt 0.450212 0.688440
vt 0.450212 0.312500
vt 0.407571 0.030428
vt 0.437165 0.109960
vt 0.462233 0.312500
vt 0.374330 0.063669
vt 0.374330 0.936331
vt 0.462233 0.688440
vt 0.437165 0.890040
vt 0.436531 0.110848
vt 0.436531 0.889152
vt 0.373062 0.934554
vt 0.462798 0.688440
vt 0.462798 0.312500
vt 0.373062 0.065446
vt 0.425862 0.131787
vt 0.474816 0.312500
vt 0.351724 0.107324
vt 0.351724 0.892676
vt 0.474816 0.688440
vt 0.425862 0.868213
vt 0.425635 0.132513
vt 0.425635 0.867487
vt 0.352474 0.889922
vt 0.474004 0.689742
vt 0.474004 0.311190
vt 0.352474 0.110086
vt 0.375000 0.000000
vt 0.625000 0.000000
vt 0.625000 0.250000
vt 0.375000 0.250000
vt 0.625000 0.500000
vt 0.375000 0.500000
vt 0.625000 0.750000
vt 0.375000 0.750000
vt 0.625000 1.000000
vt 0.375000 1.000000
vt 0.875000 0.000000
vt 0.875000 0.250000
vt 0.125000 0.000000
vt 0.125000 0.250000
vt 0.375000 0.000000
vt 0.625000 0.000000
vt 0.625000 0.250000
vt 0.375000 0.250000
vt 0.625000 0.500000
vt 0.375000 0.500000
vt 0.625000 0.750000
vt 0.375000 0.750000
vt 0.625000 1.000000
vt 0.375000 1.000000
vt 0.875000 0.000000
vt 0.875000 0.250000
vt 0.125000 0.000000
vt 0.125000 0.250000
vn -0.368207 0.922239 -0.117891
vn -0.309767 0.945626 -0.099180
vn -0.021583 0.998296 0.054218
vn -0.009051 0.998259 0.058288
vn 0.373000 0.919676 0.122750
vn 0.313953 0.943800 0.103318
vn -0.269348 0.943188 -0.194546
vn -0.320125 0.918725 -0.231222
vn 0.318060 0.919155 0.232363
vn 0.267542 0.943514 0.195456
vn -0.194921 0.943939 -0.266429
vn -0.231671 0.919812 -0.316661
vn 0.228989 0.920149 0.317631
vn 0.192695 0.944154 0.267288
vn -0.103318 0.943273 -0.315533
vn -0.122839 0.918789 -0.375150
vn 0.118562 0.922180 0.368140
vn 0.099626 0.945718 0.309342
vn 0.000000 1.000000 -0.000000
vn 0.000000 1.000000 -0.000000
vn -0.156435 0.000000 0.987688
vn -0.156435 0.000000 0.987688
vn -0.299390 0.000000 0.954131
vn -0.299090 0.000000 0.954225
vn -0.453991 0.000000 0.891007
vn -0.453990 0.000000 0.891007
vn -0.453990 0.000000 0.891007
vn -0.453991 0.000000 0.891007
vn -0.707107 0.000000 0.707107
vn -0.707107 0.000000 0.707107
vn -0.707107 0.000000 0.707107
vn -0.707107 0.000000 0.707107
vn -0.891007 0.000000 0.453990
vn -0.891007 0.000000 0.453990
vn -0.891007 0.000000 0.453990
vn -0.891007 0.000000 0.453990
vn -0.987688 0.000000 0.156434
vn -0.987688 0.000000 0.156434
vn -0.987688 0.000000 0.156434
vn -0.987688 0.000000 0.156434
vn 0.000000 -1.000000 0.000000
vn 0.000000 -1.000000 0.000000
vn 0.000000 -1.000000 0.000000
vn 0.000000 -1.000000 0.000000
vn 0.000000 -1.000000 -0.000000
vn 0.000000 -1.000000 -0.000000
vn 0.000000 -1.000000 -0.000000
vn 0.000000 -1.000000 -0.000000
vn 0.000000 -1.000000 -0.000000
vn 0.000000 -1.000000 -0.000000
vn 0.000000 -1.000000 0.000000
vn 0.000000 -1.000000 0.000000
vn 0.000000 -1.000000 -0.000000
vn 0.000000 -1.000000 -0.000000
vn 0.000000 -1.000000 -0.000000
vn 0.000000 -1.000000 -0.000000
vn 0.000000 -1.000000 0.000000
vn 0.000000 -1.000000 0.000000
vn 0.000000 -1.000000 0.000000
vn 0.000000 -1.000000 0.000000
vn 1.000000 0.000000 0.000000
vn 1.000000 0.000000 0.000000
vn 1.000000 0.000000 0.000000
vn 1.000000 0.000000 0.000000
vn 0.156436 0.000000 -0.987688
vn 0.156435 0.000000 -0.987688
vn 0.156435 0.000000 -0.987688
vn 0.156436 0.000000 -0.987688
vn 0.453991 0.000000 -0.891007
vn 0.453991 0.000000 -0.891007
vn 0.453990 0.000000 -0.891007
vn 0.453991 0.000000 -0.891007
vn 0.707107 0.000000 -0.707107
vn 0.707107 0.000000 -0.707107
vn 0.707107 0.000000 -0.707107
vn 0.707107 0.000000 -0.707107
vn 0.891007 0.000000 -0.453990
vn 0.891007 0.000000 -0.453990
vn 0.891007 0.000000 -0.453990
vn 0.891007 0.000000 -0.453990
vn 0.987688 -0.000000 -0.156434
vn 0.987688 -0.000000 -0.156434
vn 0.987688 -0.000000 -0.156434
vn 0.987688 -0.000000 -0.156434
vn 0.000000 -0.000000 -1.000000
vn 0.000000 -0.000000 -1.000000
vn 0.000000 -0.000000 -1.000000
vn 0.000000 -0.000000 -1.000000
vn 0.156435 0.000000 -0.987688
vn 0.156435 0.000000 -0.987688
vn 0.000000 -1.000000 0.000000
vn 0.000000 -1.000000 0.000000
vn -0.156435 0.000000 0.987688
vn -0.156435 0.000000 0.987688
vn 0.000000 1.000000 0.000000
vn 0.000000 1.000000 0.000000
vn 0.453999 0.000000 -0.891002
vn 0.453999 0.000000 -0.891002
vn -0.035652 0.998302 0.046078
vn -0.030684 0.998293 0.049688
vn -0.583941 0.000000 0.811796
vn -0.583862 0.000000 0.811853
vn 0.000000 -1.000000 0.000000
vn 0.000000 -1.000000 0.000000
vn 0.453999 0.000000 -0.891002
vn 0.453999 0.000000 -0.891002
vn 0.707100 0.000000 -0.707114
vn 0.707100 0.000000 -0.707114
vn -0.045290 0.998298 0.036738
vn -0.051655 0.998273 0.027975
vn -0.813884 0.000000 0.581027
vn -0.814014 0.000000 0.580845
vn 0.000000 -1.000000 0.000000
vn 0.000000 -1.000000 0.000000
vn 0.707108 0.000000 -0.707106
vn 0.707108 0.000000 -0.707106
vn 0.891006 0.000000 -0.453992
vn 0.891006 0.000000 -0.453992
vn -0.054236 0.998296 0.021528
vn -0.058243 0.998260 0.009190
vn -0.954109 0.000000 0.299460
vn -0.954164 0.000000 0.299284
vn 0.000000 -1.000000 -0.000000
vn 0.000000 -1.000000 -0.000000
vn 0.891006 0.000000 -0.453992
vn 0.891006 0.000000 -0.453992
vn 0.987689 0.000000 -0.156432
vn 0.987689 0.000000 -0.156432
vn 0.000000 0.000000 -1.000000
vn 0.000000 0.000000 -1.000000
vn 0.000000 0.000000 -1.000000
vn 0.000000 0.000000 -1.000000
vn 0.000000 -1.000000 0.000000
vn 0.000000 -1.000000 0.000000
vn 0.000000 -1.000000 0.000000
vn 0.000000 -1.000000 0.000000
vn 0.000000 0.000000 1.000000
vn 0.000000 0.000000 1.000000
vn 0.000000 0.000000 1.000000
vn 0.000000 0.000000 1.000000
vn 0.000000 1.000000 0.000000
vn 0.000000 1.000000 0.000000
vn 0.000000 1.000000 0.000000
vn 0.000000 1.000000 0.000000
vn 1.000000 0.000000 0.000000
vn 1.000000 0.000000 0.000000
vn 1.000000 0.000000 0.000000
vn 1.000000 0.000000 0.000000
vn -1.000000 0.000000 0.000000
vn -1.000000 0.000000 0.000000
vn -1.000000 0.000000 0.000000
vn -1.000000 0.000000 0.000000
vn -1.000000 0.000000 0.000000
vn -1.000000 0.000000 0.000000
vn -1.000000 0.000000 0.000000
vn -1.000000 0.000000 0.000000
vn 0.000000 -1.000000 0.000000
vn 0.000000 -1.000000 0.000000
vn 0.000000 -1.000000 0.000000
vn 0.000000 -1.000000 0.000000
vn 1.000000 0.000000 0.000000
vn 1.000000 0.000000 0.000000
vn 1.000000 0.000000 0.000000
vn 1.000000 0.000000 0.000000
vn 0.000000 1.000000 0.000000
vn 0.000000 1.000000 0.000000
vn 0.000000 1.000000 0.000000
vn 0.000000 1.000000 0.000000
vn 0.000000 0.000000 -1.000000
vn 0.000000 0.000000 -1.000000
vn 0.000000 0.000000 -1.000000
vn 0.000000 0.000000 -1.000000
vn 0.000000 0.000000 1.000000
vn 0.000000 0.000000 1.000000
vn 0.000000 0.000000 1.000000
vn 0.000000 0.000000 1.000000
s 1
g pCylinder4
usemtl initialShadingGroup
f 28/38/1 25/33/2 2/2/3 8/8/4
f 32/44/5 29/39/6 33/45/7 34/47/8
f 40/56/9 37/51/10 41/57/11 42/59/12
f 48/68/13 45/63/14 49/69/15 50/71/16
f 56/80/17 53/75/18 6/6/19 12/12/20
s 5
f 27/36/21 28/37/22 8/13/23 14/18/24
f 31/42/25 32/43/26 34/46/27 35/49/28
f 39/54/29 40/55/30 42/58/31 43/61/32
f 47/66/33 48/67/34 50/70/35 51/73/36
f 55/78/37 56/79/38 12/12/39 18/22/40
s 9
f 26/34/41 27/35/42 14/26/43 20/31/44
f 30/40/45 31/41/46 35/48/47 36/50/48
f 38/52/49 39/53/50 43/60/51 44/62/52
f 46/64/53 47/65/54 51/72/55 52/74/56
f 54/76/57 55/77/58 18/22/59 24/27/60
s off
f 1/1/61 7/7/62 13/17/63 19/32/64
s 13
f 2/2/65 25/33/66 26/34/67 20/31/68
s 14
f 36/50/69 33/45/70 29/39/71 30/40/72
s 15
f 44/62/73 41/57/74 37/51/75 38/52/76
s 16
f 52/74/77 49/69/78 45/63/79 46/64/80
s 17
f 6/6/81 53/75/82 54/76/83 24/27/84
s off
f 12/12/85 6/6/86 24/27/87 18/22/88
s 13
f 26/34/67 25/33/66 1/1/89 19/32/90
s 9
f 13/17/91 27/35/42 26/34/41 19/32/92
s 5
f 7/7/93 28/37/22 27/36/21 13/17/94
s 1
f 1/1/95 25/33/2 28/38/1 7/7/96
s 14
f 30/40/72 29/39/71 2/2/97 20/31/98
s 9
f 14/26/43 31/41/46 30/40/45 20/31/44
s 5
f 8/13/23 32/43/26 31/42/25 14/18/24
s 1
f 2/2/3 29/39/6 32/44/5 8/8/4
f 34/47/8 33/45/7 3/3/99 9/9/100
s 5
f 35/49/28 34/46/27 9/14/101 15/19/102
s 9
f 36/50/48 35/48/47 15/25/103 21/30/104
s 14
f 3/3/105 33/45/70 36/50/69 21/30/106
s 15
f 38/52/76 37/51/75 3/3/107 21/30/108
s 9
f 15/25/103 39/53/50 38/52/49 21/30/104
s 5
f 9/14/101 40/55/30 39/54/29 15/19/102
s 1
f 3/3/99 37/51/10 40/56/9 9/9/100
f 42/59/12 41/57/11 4/4/109 10/10/110
s 5
f 43/61/32 42/58/31 10/15/111 16/20/112
s 9
f 44/62/52 43/60/51 16/24/113 22/29/114
s 15
f 4/4/115 41/57/74 44/62/73 22/29/116
s 16
f 46/64/80 45/63/79 4/4/117 22/29/118
s 9
f 16/24/113 47/65/54 46/64/53 22/29/114
s 5
f 10/15/111 48/67/34 47/66/33 16/20/112
s 1
f 4/4/109 45/63/14 48/68/13 10/10/110
f 50/71/16 49/69/15 5/5/119 11/11/120
s 5
f 51/73/36 50/70/35 11/16/121 17/21/122
s 9
f 52/74/56 51/72/55 17/23/123 23/28/124
s 16
f 5/5/125 49/69/78 52/74/77 23/28/126
s 17
f 54/76/83 53/75/82 5/5/127 23/28/128
s 9
f 17/23/123 55/77/58 54/76/57 23/28/124
s 5
f 11/16/121 56/79/38 55/78/37 17/21/122
s 1
f 5/5/119 53/75/18 56/80/17 11/11/120
s off
f 57/81/129 58/82/130 60/83/131 59/84/132
f 59/84/133 60/83/134 62/85/135 61/86/136
f 61/86/137 62/85/138 64/87/139 63/88/140
f 63/88/141 64/87/142 58/89/143 57/90/144
f 58/82/145 64/91/146 62/92/147 60/83/148
f 63/93/149 57/81/150 59/84/151 61/94/152
f 65/95/153 66/96/154 68/97/155 67/98/156
f 67/98/157 68/97/158 70/99/159 69/100/160
f 69/100/161 70/99/162 72/101/163 71/102/164
f 71/102/165 72/101/166 66/103/167 65/104/168
f 66/96/169 72/105/170 70/106/171 68/97/172
f 71/107/173 65/95/174 67/98/175 69/108/176
