# This file uses centimeters as units for non-parametric coordinates.

mtllib TableTop.mtl
g default
v 2.508639 -0.062981 -1.272124
v 0.000000 -0.062981 -1.799055
v -2.508639 -0.062981 -1.272124
v -3.547751 -0.062981 0.000000
v -2.508639 -0.062981 1.272124
v 0.000000 -0.062981 1.799055
v 2.508639 -0.062981 1.272124
v 3.547751 -0.062981 0.000000
v 3.547751 0.000000 -1.799055
v 0.000000 0.000000 -2.544247
v -3.547751 0.000000 -1.799055
v -5.017278 0.000000 0.000000
v -3.547751 0.000000 1.799055
v 0.000000 0.000000 2.544247
v 3.547751 0.000000 1.799055
v 5.017278 0.000000 0.000000
v 2.508639 0.062981 -1.272124
v 0.000000 0.062981 -1.799055
v -2.508639 0.062981 -1.272124
v -3.547751 0.062981 0.000000
v -2.508639 0.062981 1.272124
v 0.000000 0.062981 1.799055
v 2.508639 0.062981 1.272124
v 3.547751 0.062981 0.000000
v 0.000000 -0.089069 0.000000
v 0.000000 0.089069 0.000000
vt 0.000000 0.250000
vt 0.125000 0.250000
vt 0.250000 0.250000
vt 0.375000 0.250000
vt 0.500000 0.250000
vt 0.625000 0.250000
vt 0.750000 0.250000
vt 0.875000 0.250000
vt 1.000000 0.250000
vt 0.000000 0.500000
vt 0.125000 0.500000
vt 0.250000 0.500000
vt 0.375000 0.500000
vt 0.500000 0.500000
vt 0.625000 0.500000
vt 0.750000 0.500000
vt 0.875000 0.500000
vt 1.000000 0.500000
vt 0.000000 0.750000
vt 0.125000 0.750000
vt 0.250000 0.750000
vt 0.375000 0.750000
vt 0.500000 0.750000
vt 0.625000 0.750000
vt 0.750000 0.750000
vt 0.875000 0.750000
vt 1.000000 0.750000
vt 0.062500 0.000000
vt 0.187500 0.000000
vt 0.312500 0.000000
vt 0.437500 0.000000
vt 0.562500 0.000000
vt 0.687500 0.000000
vt 0.812500 0.000000
vt 0.937500 0.000000
vt 0.062500 1.000000
vt 0.187500 1.000000
vt 0.312500 1.000000
vt 0.437500 1.000000
vt 0.562500 1.000000
vt 0.687500 1.000000
vt 0.812500 1.000000
vt 0.937500 1.000000
vn 0.017687 -0.996292 -0.084204
vn 0.017687 -0.996292 -0.084204
vn 0.017687 -0.996292 -0.084204
vn 0.017687 -0.996292 -0.084204
vn -0.017687 -0.996292 -0.084204
vn -0.017687 -0.996292 -0.084204
vn -0.017687 -0.996292 -0.084204
vn -0.017687 -0.996292 -0.084204
vn -0.042793 -0.998472 -0.034955
vn -0.042793 -0.998472 -0.034955
vn -0.042793 -0.998472 -0.034955
vn -0.042793 -0.998472 -0.034955
vn -0.042793 -0.998472 0.034955
vn -0.042793 -0.998472 0.034955
vn -0.042793 -0.998472 0.034955
vn -0.042793 -0.998472 0.034955
vn -0.017687 -0.996292 0.084204
vn -0.017687 -0.996292 0.084204
vn -0.017687 -0.996292 0.084204
vn -0.017687 -0.996292 0.084204
vn 0.017687 -0.996292 0.084204
vn 0.017687 -0.996292 0.084204
vn 0.017687 -0.996292 0.084204
vn 0.017687 -0.996292 0.084204
vn 0.042793 -0.998472 0.034955
vn 0.042793 -0.998472 0.034955
vn 0.042793 -0.998472 0.034955
vn 0.042793 -0.998472 0.034955
vn 0.042793 -0.998472 -0.034955
vn 0.042793 -0.998472 -0.034955
vn 0.042793 -0.998472 -0.034955
vn 0.042793 -0.998472 -0.034955
vn 0.017687 0.996292 -0.084204
vn 0.017687 0.996292 -0.084204
vn 0.017687 0.996292 -0.084204
vn 0.017687 0.996292 -0.084204
vn -0.017687 0.996292 -0.084204
vn -0.017687 0.996292 -0.084204
vn -0.017687 0.996292 -0.084204
vn -0.017687 0.996292 -0.084204
vn -0.042793 0.998472 -0.034955
vn -0.042793 0.998472 -0.034955
vn -0.042793 0.998472 -0.034955
vn -0.042793 0.998472 -0.034955
vn -0.042793 0.998472 0.034955
vn -0.042793 0.998472 0.034955
vn -0.042793 0.998472 0.034955
vn -0.042793 0.998472 0.034955
vn -0.017687 0.996292 0.084204
vn -0.017687 0.996292 0.084204
vn -0.017687 0.996292 0.084204
vn -0.017687 0.996292 0.084204
vn 0.017687 0.996292 0.084204
vn 0.017687 0.996292 0.084204
vn 0.017687 0.996292 0.084204
vn 0.017687 0.996292 0.084204
vn 0.042793 0.998472 0.034955
vn 0.042793 0.998472 0.034955
vn 0.042793 0.998472 0.034955
vn 0.042793 0.998472 0.034955
vn 0.042793 0.998472 -0.034955
vn 0.042793 0.998472 -0.034955
vn 0.042793 0.998472 -0.034955
vn 0.042793 0.998472 -0.034955
vn 0.003046 -0.999890 -0.014499
vn 0.003046 -0.999890 -0.014499
vn 0.003046 -0.999890 -0.014499
vn -0.003046 -0.999890 -0.014499
vn -0.003046 -0.999890 -0.014499
vn -0.003046 -0.999890 -0.014499
vn -0.007353 -0.999955 -0.006006
vn -0.007353 -0.999955 -0.006006
vn -0.007353 -0.999955 -0.006006
vn -0.007353 -0.999955 0.006006
vn -0.007353 -0.999955 0.006006
vn -0.007353 -0.999955 0.006006
vn -0.003046 -0.999890 0.014499
vn -0.003046 -0.999890 0.014499
vn -0.003046 -0.999890 0.014499
vn 0.003046 -0.999890 0.014499
vn 0.003046 -0.999890 0.014499
vn 0.003046 -0.999890 0.014499
vn 0.007353 -0.999955 0.006006
vn 0.007353 -0.999955 0.006006
vn 0.007353 -0.999955 0.006006
vn 0.007353 -0.999955 -0.006006
vn 0.007353 -0.999955 -0.006006
vn 0.007353 -0.999955 -0.006006
vn 0.003046 0.999890 -0.014499
vn 0.003046 0.999890 -0.014499
vn 0.003046 0.999890 -0.014499
vn -0.003046 0.999890 -0.014499
vn -0.003046 0.999890 -0.014499
vn -0.003046 0.999890 -0.014499
vn -0.007353 0.999955 -0.006006
vn -0.007353 0.999955 -0.006006
vn -0.007353 0.999955 -0.006006
vn -0.007353 0.999955 0.006006
vn -0.007353 0.999955 0.006006
vn -0.007353 0.999955 0.006006
vn -0.003046 0.999890 0.014499
vn -0.003046 0.999890 0.014499
vn -0.003046 0.999890 0.014499
vn 0.003046 0.999890 0.014499
vn 0.003046 0.999890 0.014499
vn 0.003046 0.999890 0.014499
vn 0.007353 0.999955 0.006006
vn 0.007353 0.999955 0.006006
vn 0.007353 0.999955 0.006006
vn 0.007353 0.999955 -0.006006
vn 0.007353 0.999955 -0.006006
vn 0.007353 0.999955 -0.006006
s off
g pSphere1
usemtl initialShadingGroup
f 1/1/1 2/2/2 10/11/3 9/10/4
f 2/2/5 3/3/6 11/12/7 10/11/8
f 3/3/9 4/4/10 12/13/11 11/12/12
f 4/4/13 5/5/14 13/14/15 12/13/16
f 5/5/17 6/6/18 14/15/19 13/14/20
f 6/6/21 7/7/22 15/16/23 14/15/24
f 7/7/25 8/8/26 16/17/27 15/16/28
f 8/8/29 1/9/30 9/18/31 16/17/32
f 9/10/33 10/11/34 18/20/35 17/19/36
f 10/11/37 11/12/38 19/21/39 18/20/40
f 11/12/41 12/13/42 20/22/43 19/21/44
f 12/13/45 13/14/46 21/23/47 20/22/48
f 13/14/49 14/15/50 22/24/51 21/23/52
f 14/15/53 15/16/54 23/25/55 22/24/56
f 15/16/57 16/17/58 24/26/59 23/25/60
f 16/17/61 9/18/62 17/27/63 24/26/64
f 2/2/65 1/1/66 25/28/67
f 3/3/68 2/2/69 25/29/70
f 4/4/71 3/3/72 25/30/73
f 5/5/74 4/4/75 25/31/76
f 6/6/77 5/5/78 25/32/79
f 7/7/80 6/6/81 25/33/82
f 8/8/83 7/7/84 25/34/85
f 1/9/86 8/8/87 25/35/88
f 17/19/89 18/20/90 26/36/91
f 18/20/92 19/21/93 26/37/94
f 19/21/95 20/22/96 26/38/97
f 20/22/98 21/23/99 26/39/100
f 21/23/101 22/24/102 26/40/103
f 22/24/104 23/25/105 26/41/106
f 23/25/107 24/26/108 26/42/109
f 24/26/110 17/27/111 26/43/112
